<svg id="Layer_1" data-name="Layer 1" xmlns="http://www.w3.org/2000/svg" xmlns:xlink="http://www.w3.org/1999/xlink" viewBox="0 0 288 288"><defs><style>.cls-1{fill:#e86433;}.cls-2{fill:url(#linear-gradient);}</style><linearGradient id="linear-gradient" x1="52.53" y1="156.82" x2="240.43" y2="75.6" gradientUnits="userSpaceOnUse"><stop offset="0.39" stop-color="#e86433"/><stop offset="0.68" stop-color="#d2522e"/><stop offset="1" stop-color="#be4229"/></linearGradient></defs><path class="cls-1" d="M83.3,221.25H53.06c.48,6,5.58,8.28,10.4,8.28a12.16,12.16,0,0,0,8.67-3.1l9.44,6.86c-4,4.51-11.37,7.11-18.11,7.11-14.55,0-23.79-9-23.79-22.83,0-13.47,9.73-22.91,22.54-22.91,13.48,0,21.28,10.36,21.28,22.91A30.86,30.86,0,0,1,83.3,221.25ZM61.53,204.69c-4.81,0-7.8,3.43-8.28,7.86H70.59C70.2,208.62,67.5,204.69,61.53,204.69Z"/><path class="cls-2" d="M247,138.44a32.64,32.64,0,0,1-30.61,22.72c-17.19,0-34.37,0-51.56-.06q-15.54,0-31.09,0a1.9,1.9,0,0,1-1.62-.85,3.23,3.23,0,0,1-.58-2q0-40.26,0-80.53V55.32a11,11,0,0,1,.37-3.28,3.81,3.81,0,0,1,2.78-2.95,51.6,51.6,0,0,1,8.57-1.32c.65,0,1.3-.11,1.94-.17h4.18a2.53,2.53,0,0,0,.38.07c1.68.15,3.37.25,5,.45a49.17,49.17,0,0,1,11.31,2.68,56.25,56.25,0,0,1,31.46,27.4,53.91,53.91,0,0,1,5.64,17.43c.17,1.21.31,2.42.47,3.63,0,0,.05,0,.07,0l.29-.09a30.92,30.92,0,0,1,11.27-2.31,33,33,0,0,1,11.07,1.59,32.5,32.5,0,0,1,15.22,10.91,30,30,0,0,1,6.65,17.36A33.57,33.57,0,0,1,247,138.44ZM51.57,106.17a7,7,0,0,0-7.72,5.12c-.08.31-.15.63-.22.94v29.59a3,3,0,0,1,.09.32,6.37,6.37,0,0,0,1.83,3.7,7.92,7.92,0,0,0,9.05,1.38,4.36,4.36,0,0,0,2.66-3.16,11.77,11.77,0,0,0,.34-2.57c0-6.39,0-12.78,0-19.18,0-3.12,0-6.25,0-9.38A6.86,6.86,0,0,0,51.57,106.17ZM123.36,60a14.15,14.15,0,0,0-.76-4.64A5.59,5.59,0,0,0,116,51.56a8.19,8.19,0,0,0-5.55,4.18A10.24,10.24,0,0,0,109.24,61v94.68c0,.14,0,.29,0,.43a4.51,4.51,0,0,0,3.51,4.64,12.74,12.74,0,0,0,7.11,0,4.31,4.31,0,0,0,3.27-3.15,7.51,7.51,0,0,0,.22-1.89q0-23.83,0-47.66V70.62C123.37,67.09,123.39,63.57,123.36,60ZM69.82,81.79a6.64,6.64,0,0,0-4.28,6.57v51q0,6.66,0,13.34a4.65,4.65,0,0,0,3,4.63,10.07,10.07,0,0,0,7.68.08,4.69,4.69,0,0,0,3.26-4.79q0-32.27,0-64.54A7,7,0,0,0,69.82,81.79ZM101.45,97.2a9.32,9.32,0,0,0-.08-1.4,7.06,7.06,0,0,0-14,1.37q0,14.52,0,29v28.9c0,.23,0,.45,0,.68a4.77,4.77,0,0,0,3.29,4.7,10.42,10.42,0,0,0,6.48.37c2.79-.71,4.36-2.42,4.35-5.55Q101.43,126.25,101.45,97.2Z"/><path class="cls-1" d="M113,240.4c-13.2,0-23.7-9.37-23.7-22.83s10.21-22.91,24.27-22.91c8.81,0,14.72,3.42,18.91,8.3a1.83,1.83,0,0,1-.18,2.55l-6.08,5.33a1.81,1.81,0,0,1-2.55-.16c-2.67-2.94-5.69-4.9-10.38-4.9-6.36,0-10.5,4.6-10.5,11.79,0,7,4.14,11.7,10.5,11.7a14.55,14.55,0,0,0,10.8-4.48,1.83,1.83,0,0,1,2.4-.08l5.74,4.69a1.83,1.83,0,0,1,.17,2.66C127.78,237,122.16,240.4,113,240.4Z"/><path class="cls-1" d="M176.48,239.48a2.31,2.31,0,0,1-2.31-2.31V215.73c0-7.86-3.08-10.2-8.57-10.2s-8.67,2.34-8.67,9.95v21.69a2.3,2.3,0,0,1-2.3,2.31H146a2.3,2.3,0,0,1-2.31-2.31V185.8a2.32,2.32,0,0,1,1.39-2.12l8.68-3.76a2.3,2.3,0,0,1,3.22,2.11v14.78a.83.83,0,0,0,1.29.7,19.26,19.26,0,0,1,10.56-2.85c12.91,0,18.69,7.69,18.69,20.07v22.44a2.31,2.31,0,0,1-2.31,2.31Z"/><path class="cls-1" d="M243.29,212.45a3,3,0,0,0-.57-1.52,2.06,2.06,0,0,0-2.84-.57,1.75,1.75,0,0,0-.84,1.3,6.35,6.35,0,0,0-.11,1.06q0,3.94,0,7.9c0,1.28,0,2.57,0,3.86a2.66,2.66,0,0,0,1.9,2.79c1.1.2,2.14-.7,2.42-2.11,0-.13.05-.26.07-.39V212.58Z"/><path class="cls-1" d="M236.44,210.48v-5.54a2,2,0,0,0-1-1.92,2.46,2.46,0,0,0-2.41,0,2,2,0,0,0-1,2q0,13.4,0,26.79c0,1.89,1.5,3.5,3.06,2.63a2.89,2.89,0,0,0,1.34-2.73V210.48Z"/><path class="cls-1" d="M229.59,200.92v-.38a3.07,3.07,0,0,0-1-2.64,2,2,0,0,0-2-.21c-.87.39-1.37,1.36-1.36,3.12q0,16.33,0,32.68c0,.27,0,.53,0,.79.2,2.69,1.88,4.43,3.34,2.82a5.26,5.26,0,0,0,1.07-3.59q0-8.16,0-16.33Z"/><path class="cls-1" d="M220.12,229.27a11,11,0,0,1-1.77-.15c-5.14-.85-7.58-5.44-7.58-11.55s2.44-10.77,7.57-11.64a11.24,11.24,0,0,1,1.78-.15,10.51,10.51,0,0,1,1.4.09,1.18,1.18,0,0,0,1.32-1.18v-6.57a3.72,3.72,0,0,0-1.05-3,2,2,0,0,0-1-.44h-.67c-13.2,0-22.83,9.44-22.83,22.91s9.63,22.83,22.83,22.83h.57a1.62,1.62,0,0,0,1.07-.69,6.42,6.42,0,0,0,1.08-4.08v-5.38a1.09,1.09,0,0,0-1.29-1.06A9.35,9.35,0,0,1,220.12,229.27Z"/></svg>