<svg id="Layer_1" data-name="Layer 1" xmlns="http://www.w3.org/2000/svg" viewBox="0 0 288 288"><defs><style>.cls-1{fill:#fff;}</style></defs><path class="cls-1" d="M81.21,223.9H49.93c.5,6.23,5.78,8.57,10.76,8.57a12.65,12.65,0,0,0,9-3.2l9.76,7.09c-4.18,4.67-11.76,7.35-18.73,7.35-15,0-24.61-9.26-24.61-23.61,0-13.93,10.06-23.7,23.31-23.7,14,0,22,10.72,22,23.7A32.22,32.22,0,0,1,81.21,223.9ZM58.7,206.78c-5,0-8.07,3.54-8.57,8.13H68.06C67.66,210.84,64.87,206.78,58.7,206.78Z"/><path class="cls-1" d="M250.54,138.25a32,32,0,0,1-7.68,13c-6.53,6.85-14.48,10.5-24,10.51-17.78,0-35.56,0-53.33-.06q-16.08,0-32.16,0a2,2,0,0,1-1.68-.88,3.29,3.29,0,0,1-.59-2V52.28a11.76,11.76,0,0,1,.38-3.4,4,4,0,0,1,2.88-3.05,54.06,54.06,0,0,1,8.86-1.37c.67,0,1.34-.11,2-.17h4.32c.13,0,.25.06.38.07,1.74.15,3.49.26,5.22.46a51,51,0,0,1,11.7,2.78,58.16,58.16,0,0,1,32.54,28.33,55.71,55.71,0,0,1,5.83,18c.18,1.25.33,2.5.49,3.75,0,0,0,0,.08,0l.29-.09a32,32,0,0,1,11.66-2.39A32.71,32.71,0,0,1,245,108.18a31,31,0,0,1,6.87,18A34.66,34.66,0,0,1,250.54,138.25ZM48.39,104.86a7.21,7.21,0,0,0-8,5.31c-.08.32-.15.65-.23,1v30.6a2,2,0,0,1,.09.33,6.63,6.63,0,0,0,1.9,3.84,8.2,8.2,0,0,0,9.35,1.42,4.54,4.54,0,0,0,2.76-3.27,12.59,12.59,0,0,0,.35-2.65c0-6.62,0-13.23,0-19.84,0-3.24,0-6.47,0-9.7A7.12,7.12,0,0,0,48.39,104.86Zm74.26-47.7a14.55,14.55,0,0,0-.79-4.8,5.78,5.78,0,0,0-6.88-4,8.42,8.42,0,0,0-5.73,4.32,10.48,10.48,0,0,0-1.2,5.39v98.37a4.67,4.67,0,0,0,3.64,4.8,13,13,0,0,0,7.35,0,4.46,4.46,0,0,0,3.39-3.25,8.07,8.07,0,0,0,.22-2q0-24.65,0-49.3V68.09C122.66,64.45,122.68,60.8,122.65,57.16ZM67.27,79.65a6.88,6.88,0,0,0-4.43,6.8q0,16.53,0,33.07,0,9.86,0,19.71c0,4.6,0,9.2,0,13.8A4.82,4.82,0,0,0,66,157.82a10.45,10.45,0,0,0,7.94.08,4.84,4.84,0,0,0,3.37-5q0-33.39,0-66.76A7.22,7.22,0,0,0,67.27,79.65ZM100,95.59a11.75,11.75,0,0,0-.08-1.45,7.3,7.3,0,0,0-14.52,1.42q0,15,0,30v29.89c0,.24,0,.47,0,.71A5,5,0,0,0,88.8,161a10.78,10.78,0,0,0,6.71.39c2.89-.73,4.51-2.5,4.5-5.74Q100,125.63,100,95.59Z"/><path class="cls-1" d="M112,243.71c-13.65,0-24.51-9.69-24.51-23.61S98,196.4,112.55,196.4c9.11,0,15.22,3.54,19.56,8.58a1.88,1.88,0,0,1-.2,2.64l-6.28,5.52A1.89,1.89,0,0,1,123,213c-2.76-3-5.88-5.07-10.74-5.07-6.58,0-10.86,4.76-10.86,12.2,0,7.26,4.28,12.11,10.86,12.11a15.08,15.08,0,0,0,11.18-4.64,1.89,1.89,0,0,1,2.48-.09l5.93,4.86a1.87,1.87,0,0,1,.18,2.74C127.22,240.18,121.41,243.71,112,243.71Z"/><path class="cls-1" d="M177.59,242.76a2.39,2.39,0,0,1-2.38-2.39V218.19c0-8.13-3.19-10.55-8.87-10.55s-9,2.42-9,10.29v22.44a2.39,2.39,0,0,1-2.39,2.39h-9a2.39,2.39,0,0,1-2.38-2.39V187.24a2.39,2.39,0,0,1,1.43-2.19l9-3.9a2.39,2.39,0,0,1,3.34,2.19v15.29a.86.86,0,0,0,1.33.72,20,20,0,0,1,10.92-2.95c13.35,0,19.33,7.95,19.33,20.76v23.21a2.39,2.39,0,0,1-2.38,2.39Z"/><path class="cls-1" d="M246.7,214.81a3.06,3.06,0,0,0-.59-1.58,2.14,2.14,0,0,0-2.94-.59,1.82,1.82,0,0,0-.86,1.35,6.6,6.6,0,0,0-.11,1.09c0,2.72,0,5.45,0,8.17,0,1.33,0,2.66,0,4a2.76,2.76,0,0,0,2,2.89c1.14.21,2.21-.73,2.5-2.18,0-.14.05-.27.07-.41v-12.6Z"/><path class="cls-1" d="M239.62,212.77c0-1.91,0-3.82,0-5.73a2.08,2.08,0,0,0-1-2,2.54,2.54,0,0,0-2.49,0,2.07,2.07,0,0,0-1.06,2.06v27.71c0,1.95,1.54,3.61,3.16,2.71a3,3,0,0,0,1.39-2.82v-21.9Z"/><path class="cls-1" d="M232.54,202.88c0-.13,0-.27,0-.4a3.15,3.15,0,0,0-1.07-2.73,2,2,0,0,0-2.1-.22c-.91.41-1.42,1.41-1.42,3.23q0,16.91,0,33.81c0,.27,0,.55,0,.81.21,2.78,2,4.59,3.45,2.92a5.41,5.41,0,0,0,1.11-3.71c0-5.63,0-11.27,0-16.9Z"/><path class="cls-1" d="M222.73,232.21a11.87,11.87,0,0,1-1.83-.16c-5.31-.88-7.83-5.64-7.83-12s2.52-11.15,7.83-12a11.76,11.76,0,0,1,1.83-.16,11.41,11.41,0,0,1,1.46.1,1.23,1.23,0,0,0,1.36-1.23V200a3.84,3.84,0,0,0-1.08-3.11,2,2,0,0,0-1-.46h-.7c-13.65,0-23.61,9.77-23.61,23.7s10,23.61,23.61,23.61h.6a1.76,1.76,0,0,0,1.1-.72,6.63,6.63,0,0,0,1.12-4.22V233.2a1.14,1.14,0,0,0-1.33-1.11A8.9,8.9,0,0,1,222.73,232.21Z"/></svg>